<svg width="312" height="101" viewBox="0 0 312 101" fill="none" xmlns="http://www.w3.org/2000/svg">
<g clip-path="url(#clip0)">
<path d="M3.22005 100.39L2.77005 100.09C2.62005 99.94 2.47005 99.79 2.31005 99.79C1.70005 99.03 1.25005 98.43 0.940054 97.52C0.480054 96.31 0.0300537 95.09 0.180054 93.73V93.43C-0.119946 92.82 0.0300537 92.22 0.0300537 91.76C0.0300537 90.85 -0.119946 90.09 0.180054 89.33C0.180054 88.87 0.330054 88.42 0.330054 87.97C0.330054 86.45 0.790054 84.94 1.09005 83.42C0.940054 82.21 1.70005 81.3 1.85005 80.24C1.85005 79.79 1.85005 79.48 2.15005 79.03C2.15005 79.03 2.30005 78.88 2.30005 78.73C2.30005 78.73 2.30005 78.58 2.45005 78.43C2.45005 77.22 3.06005 76.16 3.21005 74.94C3.21005 74.79 3.21005 74.48 3.51005 74.18C3.66005 73.88 3.66005 73.57 3.97005 73.27V73.12C3.97005 72.51 4.27005 72.06 4.58005 71.45C4.88005 70.69 4.88005 69.93 5.34005 69.33C5.34005 68.72 5.49005 68.27 5.95005 67.66V67.51C6.40005 66.3 6.86005 65.08 7.47005 63.87C7.47005 63.41 7.93005 62.96 8.08005 62.51C8.08005 61.3 8.99005 60.39 9.29005 59.48C9.59005 58.57 10.0501 57.81 10.5001 56.9C11.1101 55.38 11.7101 53.87 12.6201 52.65C12.6201 52.5 12.7701 52.35 12.7701 52.35C12.9201 51.59 12.9201 50.99 13.6801 50.68V50.5C13.5301 50.04 13.8301 49.74 13.9801 49.44C14.2801 48.53 14.7401 47.77 15.1901 47.01C15.8001 46.4 15.8001 45.49 16.4001 44.89C16.5501 44.44 16.7001 43.98 17.0101 43.68L18.3801 40.95V40.8L19.2901 38.98C19.2901 38.37 19.4401 37.92 19.9001 37.62C20.0501 37.01 20.3601 36.56 20.8101 36.1C20.8101 35.95 20.9601 35.8 20.9601 35.8L21.5701 34.89C21.7201 34.28 21.8701 33.68 22.4801 33.22C22.4801 33.07 22.6301 32.92 22.7801 32.76C22.9301 32.15 23.2401 31.7 23.5401 31.24C23.8401 30.48 24.3001 30.18 24.6001 29.72C24.9001 29.11 25.3601 28.81 25.5101 28.2C25.5101 27.59 25.8101 27.29 26.1201 26.84L28.2401 24.11V23.96C28.3901 23.66 28.5401 23.66 28.5401 23.5C28.8401 22.89 29.0001 22.29 29.6001 21.98L31.2701 19.55C31.4201 19.25 33.3901 16.67 33.5501 16.52C34.1601 16.06 34.4601 15.16 35.0701 14.7C35.3701 14.4 35.8301 14.09 36.2801 14.09C36.8901 14.09 37.3401 14.24 37.4901 14.85C37.6401 15.46 37.1901 15.91 36.8801 16.37C36.5801 16.83 36.4201 17.28 36.1201 17.58C35.8201 18.19 35.3601 18.79 35.0601 19.55C34.7601 19.85 34.6001 20.16 34.4501 20.46C34.0001 21.22 33.5401 21.98 33.0901 22.89C32.7901 23.19 32.7901 23.8 32.3301 23.95C32.3301 24.1 32.1801 24.25 32.1801 24.25C31.8801 24.86 31.7201 25.31 31.4201 25.77C31.4201 25.92 31.4201 26.23 31.1201 26.38L29.0001 30.02C28.8501 30.48 28.5401 30.78 28.2401 31.23C28.0901 31.84 27.6301 32.44 27.3301 33.05C27.1801 33.66 26.8701 34.11 26.4201 34.72L25.6601 35.93C25.6601 36.23 25.5101 36.39 25.3601 36.69C25.2101 37.15 25.0601 37.6 24.6001 37.9C24.6001 38.05 24.4501 38.2 24.4501 38.2C24.3001 38.81 24.1501 39.11 23.8401 39.56C23.5401 40.17 23.3801 40.77 22.9301 41.38C22.7801 41.84 22.4701 42.29 22.3201 42.74C22.3201 42.89 22.1701 43.04 22.0201 43.2C21.8701 43.96 21.2601 44.56 20.9601 45.47L20.2001 46.84C20.0501 47.75 19.4401 48.51 19.1401 49.27L17.3201 53.21C16.8601 54.42 16.4101 55.64 15.6501 56.7V56.85C15.3501 57.61 15.0401 58.21 14.5901 58.97C14.1301 60.64 13.2201 62.15 12.6201 63.82C12.4701 64.12 12.4701 64.73 12.0101 65.03C12.0101 65.49 11.8601 65.79 11.4001 66.39V66.54C11.4001 67.6 10.7901 68.36 10.4901 69.12C10.3401 69.58 10.0301 70.03 9.88005 70.48C9.58005 71.09 9.42005 71.69 9.12005 72.45C9.12005 73.06 8.51005 74.72 8.06005 75.18C7.61005 75.94 7.61005 77 7.00005 77.91C7.00005 78.37 5.64005 83.37 5.33005 83.52L4.42005 86.86L3.96005 89.74C3.96005 90.35 3.81005 90.95 3.66005 91.56C3.66005 92.62 3.51005 93.68 3.51005 94.9C3.66005 95.36 3.66005 95.96 3.81005 96.57V96.72C4.11005 97.33 4.26005 97.93 4.72005 98.39C5.18005 98.39 5.48005 98.69 5.93005 98.69C7.45005 98.39 8.51005 97.48 9.87005 96.72C10.1701 96.26 10.9301 96.26 11.2301 95.81C11.6901 95.36 11.9901 95.05 12.4401 94.75C12.8901 94.3 13.3501 93.99 13.6501 93.54L17.2901 89.45C17.9001 88.84 18.3501 88.09 18.9601 87.33C19.2601 86.87 19.5701 86.42 19.8701 86.12C20.3301 85.06 20.9301 84.3 21.5401 83.54L22.4501 82.18C22.6001 81.88 22.7501 81.42 23.2101 81.12L25.0301 77.63C25.0301 77.48 25.1801 77.33 25.3301 77.02L25.9401 75.96C25.9401 75.81 26.0901 75.66 26.2401 75.5C26.2401 75.5 26.3901 75.35 26.3901 75.2C26.3901 74.9 26.6901 74.59 27.0001 74.14C27.1501 73.99 27.1501 73.68 27.4501 73.53C27.4501 72.92 27.9101 72.62 28.0601 72.17C28.0601 72.02 28.2101 71.71 28.3601 71.41C28.8201 70.35 29.2701 69.44 29.8801 68.53C29.8801 68.23 30.0301 68.07 30.1801 67.92C30.6401 66.56 32.9101 62.46 33.5201 61.1L33.9801 60.19C34.7401 58.67 35.3401 58.22 35.5001 58.22C35.8001 58.22 35.8001 58.67 35.5001 59.28L32.1601 66.26C31.7001 67.02 31.4001 67.93 30.9501 68.69C30.9501 68.84 30.8001 69.14 30.4901 69.3C30.4901 69.6 30.3401 69.91 30.0301 70.21C29.8801 70.67 29.5701 71.27 29.2701 71.57L28.8101 72.33C28.6601 72.63 28.5101 73.09 28.2001 73.39C28.2001 73.39 28.0501 73.54 28.0501 73.69C28.0501 74.15 27.7501 74.6 27.4401 75.05C27.1401 76.11 23.6501 82.18 23.0401 82.94C22.8901 83.24 22.7401 83.55 22.4301 83.7C22.1301 84.46 21.8201 84.91 21.3701 85.37C21.2201 85.67 21.0701 85.98 20.7601 86.28C19.8501 87.95 18.7901 89.62 17.4201 91.28C17.4201 91.58 17.1201 91.74 16.8101 91.89L16.5101 92.34C15.9001 93.1 15.6001 93.7 14.9901 94.31C14.6901 94.61 14.3801 95.07 13.9301 95.37L12.8701 96.43C12.2601 97.19 11.3501 97.79 10.6001 98.4H10.3001C10.0001 99.01 9.24005 99.46 8.63005 99.61C7.87005 99.91 7.11005 100.37 6.35005 100.67C6.05005 100.82 5.74005 100.82 5.44005 100.82C5.04005 100.84 3.68005 100.84 3.22005 100.39ZM15.8101 52.62V52.47L15.6601 52.62H15.8101ZM25.5101 77.34H25.3601V77.49C25.3601 77.34 25.3601 77.34 25.5101 77.34Z" fill="#B3A29A"/>
<path d="M32.34 80.98C32.04 80.83 31.73 80.83 31.58 80.52C31.28 80.52 30.97 80.37 30.82 80.07L30.36 79.77C29.9 79.47 29.45 79.16 29.45 78.71C29.15 78.56 28.99 78.41 29.15 78.25C29 78.1 29 77.94 29 77.79C28.39 77.49 28.54 76.88 28.39 76.43C27.93 75.82 28.09 75.07 27.78 74.31C27.78 73.55 27.78 72.64 28.08 71.88C27.93 71.12 27.93 70.36 28.08 69.76C28.38 68.24 28.84 66.88 29.45 65.36C30.06 64.75 29.9 64.15 30.21 63.84C30.82 62.48 31.58 61.11 32.33 59.9C32.48 59.75 32.48 59.44 32.63 59.44C32.93 58.83 33.24 58.38 33.69 58.08C33.99 57.47 34.3 56.87 34.75 56.56C35.05 56.1 35.36 55.65 35.81 55.35C36.27 54.74 36.72 54.44 37.02 53.99C37.48 53.53 37.78 52.93 38.38 52.93C39.14 51.72 40.2 51.11 41.41 50.5C42.47 50.04 43.53 49.29 44.9 49.14L45.05 48.99L46.11 48.84C47.32 48.84 48.23 49.3 48.84 50.05C49.75 51.26 49.6 52.78 49.29 54.14C48.99 55.5 48.53 56.72 47.62 57.63C47.47 58.24 47.01 58.54 46.71 58.99V59.14C45.95 59.75 45.34 60.81 44.44 61.11C43.83 61.72 43.23 62.17 42.62 62.48C42.16 62.93 41.56 63.24 41.1 63.54C40.8 63.69 40.49 63.69 40.34 63.84C38.97 64.45 37.61 65.05 36.09 65.2C35.79 65.5 35.48 65.35 35.33 65.35C34.57 65.35 34.27 65.5 33.81 66.11C33.66 66.26 33.51 66.26 33.51 66.41L32.6 68.84C32.3 69.6 32.14 70.36 31.99 71.11C31.99 71.26 31.99 71.56 31.84 71.72C31.84 73.69 31.54 75.51 31.99 77.48C31.99 77.94 32.45 78.24 32.75 78.69C32.9 78.69 33.05 78.84 33.21 78.99C33.36 78.99 33.51 79.14 33.67 79.29C35.19 79.29 36.25 79.29 37.76 78.83L37.91 78.68C38.21 78.53 38.37 78.38 38.67 78.38C38.67 78.23 38.82 78.23 39.13 78.23V78.1C39.28 77.95 39.43 77.95 39.43 77.95C39.73 77.8 40.04 77.49 40.19 77.49C40.34 77.34 40.49 77.19 40.64 77.19C40.79 77.04 40.94 76.89 41.25 76.73C41.55 76.73 41.7 76.28 42.01 76.12C42.31 75.82 42.62 75.51 42.92 75.36L44.13 74.3C44.43 73.85 44.74 73.69 45.04 73.54L45.95 72.63C46.25 72.33 46.41 72.02 46.86 72.02C47.16 71.26 47.77 70.81 48.38 70.35V70.2C48.99 69.74 49.44 69.14 50.05 68.68C50.51 68.07 50.96 67.62 51.41 67.16C51.56 66.7 51.87 66.55 52.32 66.25C52.78 65.19 53.69 64.43 54.44 63.52C54.59 63.22 54.9 63.07 55.2 62.76C56.11 61.55 57.02 60.33 58.08 59.27C58.54 58.51 59.14 57.91 59.75 57.15C59.75 57 59.9 56.85 60.05 56.85C60.2 56.55 60.35 56.39 60.66 56.55C60.96 56.55 60.81 56.85 60.96 57.16C60.96 57.46 60.81 57.77 60.66 58.07C60.05 58.37 59.9 59.13 59.45 59.59L58.54 60.8C57.93 61.56 57.33 62.16 56.87 62.92L54.9 65.19C54.75 65.34 54.75 65.49 54.75 65.64C54.29 66.4 53.69 66.85 53.08 67.46C52.32 68.52 51.56 69.43 50.5 70.19V70.49C49.59 71.25 48.68 72.16 47.92 72.92L47.46 73.22C47.16 73.52 47.31 73.98 46.7 73.83H46.55C45.79 74.74 44.88 75.65 43.82 76.26C43.52 76.41 43.37 76.71 43.21 76.87C42.75 77.02 42.45 77.63 42 77.78C41.24 78.54 40.33 78.84 39.57 79.45C39.12 79.75 38.51 80.06 38.05 80.21C36.84 80.82 35.47 81.12 34.11 81.12C33.55 81.13 32.94 81.13 32.34 80.98ZM35.98 63.84C36.44 63.84 36.89 63.54 37.19 63.69H37.34C37.8 63.23 38.4 63.39 39.01 63.08C39.77 62.78 40.53 62.32 41.44 62.02C41.9 61.26 42.5 60.81 43.26 60.5C43.41 60.5 43.41 60.35 43.72 60.35C43.87 60.2 44.02 60.05 44.18 60.05C44.33 59.6 44.48 59.6 44.64 59.44C44.64 58.83 45.1 58.68 45.4 58.68H45.55C45.7 58.38 45.85 57.92 46.16 57.77C46.92 56.86 47.37 55.8 47.83 54.74C47.98 54.28 47.98 53.83 48.13 53.38C48.13 52.62 48.13 52.02 47.67 51.41C47.37 51.11 47.06 51.11 46.76 51.11C46.46 51.11 46.15 51.11 45.85 51.26C44.33 51.87 43.12 52.93 41.91 53.69C41.76 53.99 41.3 54.45 41 54.45C40.85 54.75 40.7 55.21 40.24 55.51L38.57 57.48C38.27 57.78 37.96 58.24 37.81 58.54C37.96 58.84 37.66 59.15 37.51 59.3C37.21 59.91 36.9 60.51 36.45 60.97H36.3C36.3 61.12 36.45 61.27 36.3 61.27C36 62.03 35.69 62.94 35.09 63.54C35.24 63.84 35.39 64 35.7 64C35.67 63.99 35.82 63.84 35.98 63.84Z" fill="#B3A29A"/>
<path d="M87.68 92.5C87.38 91.89 87.68 91.44 87.83 90.98C87.98 90.37 87.68 89.77 88.13 89.16C88.28 88.25 88.28 87.19 88.89 86.43C88.89 86.13 88.89 85.82 89.04 85.52C89.5 83.7 90.25 82.03 91.01 80.36C91.01 79.6 91.16 78.84 91.77 78.24C91.92 77.48 92.38 76.88 92.53 76.12C92.83 75.21 93.29 74.45 93.74 73.69C93.89 72.48 94.5 71.57 95.1 70.66C95.1 69.75 95.56 69.14 96.01 68.39C96.01 68.09 96.16 67.94 96.31 67.78C96.31 67.63 96.31 67.48 96.46 67.48C96.31 66.57 96.91 65.96 97.22 65.21C97.22 64.75 97.52 64.45 97.68 64C97.68 63.7 97.83 63.54 98.14 63.39C98.29 62.78 98.44 62.18 98.9 61.72C98.9 61.26 99.05 60.96 99.36 60.66C99.36 60.2 99.66 59.9 99.97 59.6L101.34 56.72C101.49 55.96 101.95 55.36 102.25 54.75C102.4 54.14 102.71 53.54 103.16 53.08C103.16 52.78 103.16 52.62 103.46 52.47C103.46 52.32 103.61 52.02 103.76 51.86C103.76 51.56 103.91 51.4 104.06 51.1C104.36 50.34 104.51 49.58 105.12 48.98C105.12 48.83 105.12 48.83 105.27 48.68C105.27 48.23 105.42 47.92 105.73 47.62V47.47C105.88 46.86 106.19 46.41 106.64 45.95C106.49 45.65 106.49 45.34 106.94 45.19C107.24 45.04 107.09 44.58 107.55 44.43C107.7 44.13 108.01 43.82 108.01 43.52C108.01 42.91 108.31 42.31 108.62 41.85C109.08 41.24 109.38 40.49 109.68 39.88C109.68 39.58 109.98 39.27 110.29 39.12C110.59 38.06 111.05 37 111.81 36.24L112.57 35.03C112.72 34.57 112.72 34.27 113.18 33.97C113.33 33.21 113.94 32.61 114.39 31.85C114.39 31.55 114.54 31.39 114.69 31.09C114.69 30.94 114.69 30.63 114.84 30.48C115.6 29.87 115.75 28.81 116.36 28.05C117.12 26.99 117.57 25.62 118.48 24.56C118.63 23.95 119.09 23.5 119.39 22.89C119.69 21.68 120.45 20.77 121.21 19.86C121.82 19.25 121.97 18.5 122.58 17.89C123.64 16.37 124.25 14.71 125.61 13.34C125.91 12.73 126.37 12.13 126.82 11.67C127.28 10.61 128.18 9.55001 128.94 8.64001C128.94 8.49001 129.09 8.49001 129.24 8.34001C129.24 8.19001 129.24 8.19001 129.39 8.04001C130 6.67001 130.91 5.77001 131.82 4.70001C131.82 4.55001 131.97 4.55001 132.12 4.40001C132.12 4.25001 132.27 4.25001 132.27 4.10001C132.57 3.34001 133.18 2.74001 133.94 2.13001C133.94 1.83001 135.46 0.31001 135.76 0.31001C136.06 0.16001 136.37 0.0100098 136.67 0.0100098C136.82 0.0100098 136.97 0.0100098 137.13 0.16001C137.74 0.77001 137.74 1.37001 137.28 1.98001C137.13 2.44001 136.98 2.74001 136.67 3.04001C136.37 3.19001 136.37 3.65001 136.06 3.80001L135.15 5.16001C134.54 6.68001 133.48 8.34001 132.57 9.56001C132.42 10.32 131.96 10.92 131.51 11.53C131.05 11.99 131.05 12.74 130.45 13.05C129.69 14.57 128.78 15.93 128.02 17.45C128.02 17.75 127.72 17.91 127.56 18.06C127.26 18.67 127.1 19.12 126.65 19.58C126.5 20.04 126.19 20.49 125.89 20.79C125.89 21.09 125.74 21.24 125.59 21.4L123.16 25.65C123.16 25.95 123.16 26.1 123.01 26.41C122.1 27.32 121.8 28.53 121.19 29.59C120.89 29.89 120.89 30.35 120.43 30.35V30.65C120.28 31.41 119.97 32.01 119.52 32.47L118.61 33.99C118.46 34.6 118.15 35.2 117.7 35.66L117.55 35.81V35.96C117.55 36.57 117.25 36.87 116.94 37.17L116.48 37.78C116.48 38.39 116.18 38.69 115.87 39.14C115.26 40.35 114.81 41.57 114.05 42.63C113.75 43.39 113.29 43.99 112.99 44.6C112.84 45.21 112.38 45.51 112.23 45.96C112.23 46.72 111.77 47.32 111.47 47.93C110.86 48.69 110.56 49.45 110.11 50.2C109.96 51.11 109.35 51.72 109.05 52.63C109.05 52.78 108.9 52.78 108.75 52.93H108.6V53.23C108.6 53.69 108.14 53.99 107.99 54.29C107.99 54.44 107.99 54.59 107.84 54.75C107.38 56.27 106.32 57.33 105.87 58.84C105.87 58.99 105.72 59.3 105.57 59.45C105.12 60.06 103.3 64.45 103.14 65.21C102.84 66.12 102.23 67.03 101.93 67.94C101.93 68.09 101.63 68.24 101.93 68.39C102.08 68.09 102.23 67.63 102.54 67.33H102.69V67.18C103.15 66.42 103.45 65.66 104.06 65.06C104.67 64.15 105.12 62.94 105.88 62.18C106.03 61.57 106.49 61.12 106.79 60.66C106.79 60.36 107.09 60.05 107.4 59.75C107.4 59.45 107.4 59.3 107.7 59.14C108.76 57.17 109.82 55.35 111.04 53.53C111.34 53.23 111.49 52.77 111.8 52.47C112.1 51.71 112.71 51.11 113.17 50.35C113.32 49.74 116.66 44.28 117.26 43.68C117.56 43.22 117.72 42.62 118.32 42.16C118.62 41.7 118.78 41.1 119.38 40.64C119.53 40.19 119.84 39.73 120.29 39.28L122.56 35.94C122.71 35.79 122.71 35.64 123.02 35.48C123.17 34.87 125.6 31.99 126.2 31.69C126.35 31.08 126.81 30.63 127.26 30.33C127.41 29.72 127.87 29.57 128.17 29.12C128.63 28.06 129.38 27.45 130.29 26.69C131.96 24.72 133.93 22.9 135.9 21.08C136.81 19.87 138.02 18.96 139.24 17.9C139.7 17.6 140 16.99 140.6 16.84C141.21 15.93 142.27 15.48 143.18 14.87C144.09 14.11 145 13.35 146.06 12.75C146.67 12.29 147.27 11.69 148.18 11.54C148.18 11.54 148.33 11.39 148.48 11.39C149.39 10.33 154.39 8.66001 156.06 8.66001C156.52 8.66001 157.12 8.66001 157.58 8.81001C158.19 8.96001 158.64 9.27001 159.1 9.72001C159.56 10.02 159.86 10.33 160.16 10.78C161.37 11.99 161.68 14.72 161.83 16.39C161.83 17.76 161.83 19.12 161.68 20.48C161.68 20.63 161.68 20.78 161.53 20.93C161.53 21.08 161.53 21.23 161.38 21.39C161.38 22 161.53 22.45 161.08 22.91L160.78 24.12C160.48 26.09 159.72 27.91 159.11 29.73L158.65 31.09C158.65 31.24 158.5 31.39 158.5 31.55C158.35 32 158.35 32.61 157.89 32.91C157.74 33.82 157.28 34.58 156.98 35.34V35.49L156.52 36.7C156.37 37.46 156.22 38.22 155.76 38.82C155.46 39.58 155.3 40.34 154.85 40.94H154.7C154.55 40.94 154.55 41.09 154.55 41.09V41.39C154.4 42.15 153.79 42.75 153.64 43.51V43.81C153.03 45.02 152.43 46.08 151.97 47.3C151.36 48.21 150.91 49.27 150.45 50.18V50.33C150.15 51.39 149.54 52.45 149.08 53.36L148.17 55.48C147.71 56.24 147.56 57.15 146.96 57.91C146.81 58.21 146.81 58.36 146.81 58.67C146.35 59.73 145.9 60.79 145.29 61.7C144.23 63.67 143.47 65.79 142.26 67.77C141.96 69.29 141.2 70.5 140.59 71.71C140.14 72.77 139.83 73.83 139.23 74.74C138.93 75.65 138.47 76.56 138.02 77.47C138.02 78.08 137.56 78.53 137.41 78.99C137.26 79.29 136.95 79.6 137.11 80.05C138.32 78.84 139.08 77.32 140.14 76.11C140.44 75.65 140.75 75.2 141.2 74.9C141.2 74.75 141.5 74.6 141.65 74.44C141.8 73.98 141.95 73.83 142.26 73.68H142.41C142.41 73.53 142.56 73.53 142.56 73.38C143.02 72.77 143.32 72.17 143.93 71.71C145.14 70.19 146.36 68.68 147.87 67.46C148.02 66.85 148.63 66.55 149.08 66.1C149.69 65.04 150.6 64.43 151.35 63.52C152.11 62.46 153.17 61.7 154.23 60.79C154.38 60.18 154.84 59.88 155.29 59.58L155.44 59.43C155.74 59.13 157.56 57.61 158.02 57.46C159.54 56.25 160.75 55.19 162.27 54.43C162.42 54.13 162.88 53.97 163.18 53.82C164.39 53.37 165.61 52.76 166.82 52.76H167.28C169.25 52.91 170.46 53.97 170.92 55.79C171.38 57.91 171.53 60.04 171.22 62.31L170.01 71.71C169.55 73.53 169.55 75.35 168.95 77.17C168.95 77.47 168.95 77.78 168.8 78.08C168.8 79.75 168.34 81.26 168.19 82.78C168.19 83.99 168.04 85.21 168.49 86.42C168.79 86.57 168.95 86.72 169.25 86.72C169.7 86.72 170.01 86.57 170.46 86.26C171.22 85.65 171.98 85.2 172.89 84.59C173.04 84.29 177.89 79.74 178.5 79.28C178.65 78.98 178.96 78.82 179.26 78.52C179.26 78.37 179.41 78.37 179.56 78.22C179.56 77.61 180.17 77.31 180.62 76.86C182.14 75.19 183.35 73.22 184.71 71.4C184.86 71.1 185.01 70.94 185.32 70.94V70.64C185.62 70.03 185.93 69.43 186.38 68.82L191.69 62C191.99 61.39 192.45 61.24 192.9 61.24C193.36 61.24 193.66 61.39 193.36 61.54C192.9 62.3 189.57 66.39 189.11 67.15C188.81 68.06 188.2 68.67 187.75 69.42L184.73 74C184.27 74.61 183.97 75.36 183.37 75.82C182.76 77.03 181.7 78.09 180.94 79.16L179.12 81.13C178.97 81.58 178.66 81.74 178.36 82.04C178.21 82.19 178.21 82.19 178.21 82.34C177.6 82.8 177.3 83.4 176.69 83.86C176.08 84.62 175.48 85.22 174.72 85.83L172 88.1C171.39 88.55 170.79 89.01 170.03 89.31C169.57 89.46 168.97 89.61 168.51 89.61C165.17 89.61 164.11 85.21 164.11 82.63C163.96 81.11 163.96 79.75 164.41 78.38C164.41 76.56 164.86 74.89 165.17 73.22C165.17 73.07 165.17 73.07 165.32 72.92C165.32 72.47 165.47 72.01 165.62 71.56C165.77 70.04 165.92 68.38 166.53 66.86C166.53 65.65 166.98 64.13 167.29 63.07C167.59 60.34 167.75 57.91 167.75 55.34C167.45 55.04 166.99 54.88 166.54 54.88C166.24 54.88 165.93 55.03 165.63 55.03C164.57 55.49 163.51 55.64 162.6 56.24L158.51 58.97C157.9 59.58 157.3 60.03 156.54 60.49L156.24 60.79C154.12 62.76 151.99 64.73 150.02 66.86C150.02 67.16 149.87 67.32 149.56 67.32C149.1 68.23 148.35 68.84 147.89 69.44L143.49 74.14C143.34 74.75 142.88 75.05 142.58 75.35C142.43 75.65 142.12 75.81 142.12 76.11C141.97 76.72 141.36 77.02 140.91 77.47C140 78.83 138.94 80.05 138.03 81.26L137.57 81.72C137.11 82.02 137.11 82.48 136.66 82.78H136.51C136.36 83.08 136.05 83.39 136.05 83.69C135.9 84.45 135.44 84.9 134.99 85.51C134.53 86.87 133.47 87.78 132.72 88.85C132.57 89.31 132.42 89.76 131.81 89.76H131.66C131.36 89.91 131.2 89.91 130.9 89.91C129.84 89.91 128.93 89 129.23 87.64C129.23 87.18 129.23 86.73 129.53 86.28C129.53 85.22 131.05 81.12 131.65 80.21L131.95 79.76C131.95 79.46 132.1 79.15 132.25 78.85C132.25 78.4 132.4 78.09 132.71 77.79C133.17 76.27 133.62 74.91 134.53 73.54C134.53 73.39 134.53 73.08 134.68 72.93C134.68 71.72 135.44 70.66 136.05 69.59C136.35 68.83 136.35 68.07 136.96 67.47C137.11 67.17 137.11 66.86 137.26 66.71C137.87 65.35 138.32 63.83 139.23 62.62C139.53 62.16 139.38 61.56 139.99 61.26C140.45 60.5 140.6 59.59 141.2 58.83C141.2 58.68 141.2 58.53 141.35 58.37C141.5 57.92 141.81 57.46 141.96 57.01C142.11 56.25 142.42 55.65 142.72 55.04C143.33 54.13 143.48 53.07 144.24 52.31C144.7 51.7 144.54 50.79 145.15 50.19C145.45 49.89 145.45 49.43 145.91 49.13C146.06 48.52 146.37 47.92 146.67 47.31V47.16C146.82 46.4 147.13 45.8 147.58 45.19C147.58 44.58 147.88 44.13 148.34 43.83V43.68C148.49 43.22 148.49 42.77 148.95 42.47C148.95 41.86 149.25 41.56 149.56 41.11C150.02 39.75 150.62 38.23 151.23 37.02L151.38 36.87C151.84 35.81 152.14 34.6 152.9 33.69C153.05 33.08 154.42 29.29 154.72 28.99C155.02 28.08 155.48 27.02 155.93 26.11C156.23 25.05 156.54 23.99 156.99 22.93C156.99 22.02 157.45 21.26 157.6 20.35C157.6 20.2 157.75 19.89 157.75 19.59C157.9 18.98 157.75 18.38 158.21 17.77C158.21 17.01 158.21 16.25 158.36 15.5C158.51 14.29 157.91 13.23 157.6 12.16V12.01L157.14 11.55C156.38 11.25 155.93 11.1 155.32 11.1C154.56 11.1 153.04 11.4 152.44 11.71L146.07 15.05C143.95 16.11 142.13 17.63 140.31 19.14C139.7 19.75 138.94 20.2 138.34 20.81C138.34 21.42 137.73 21.42 137.43 21.87C135.91 23.23 134.4 24.6 133.18 26.12C132.88 26.27 132.72 26.42 132.57 26.58H132.42L127.72 31.58C127.57 31.88 127.42 32.19 127.11 32.34C126.66 33.25 125.9 34.01 125.29 34.77C123.92 36.44 122.56 38.11 121.35 39.77C121.05 40.38 120.59 40.98 120.14 41.44C119.69 42.5 118.93 43.41 118.32 44.32C117.11 45.99 116.05 47.81 114.98 49.48C114.83 49.78 114.68 49.94 114.52 50.09L114.22 50.55C113.61 51.31 113.31 52.22 112.7 52.98L111.79 54.5C111.64 54.95 111.33 55.41 111.03 55.71C111.03 55.86 110.88 56.01 110.73 56.17C109.67 57.99 108.61 59.81 107.39 61.48C106.33 63.3 105.42 65.12 104.21 66.94C103.91 67.55 103.6 68.3 103.15 68.76C102.69 69.37 102.54 70.12 101.94 70.58V70.73C101.48 71.49 95.87 82.25 95.72 82.41L94.96 84.08C94.66 84.84 94.5 85.6 94.05 86.2C94.05 86.35 93.9 86.5 93.9 86.66C93.6 87.72 93.14 88.78 92.53 89.69L92.07 90.6C91.77 91.51 91.16 92.27 90.55 93.03C90.09 93.48 89.64 93.64 89.18 93.64C88.59 93.56 87.99 93.26 87.68 92.5ZM91.63 83.25H91.48L91.33 83.4C91.47 83.4 91.47 83.4 91.63 83.25ZM157.89 29.72V29.57L157.74 29.72H157.89ZM168.21 79.61H168.06V79.76C168.21 79.76 168.21 79.61 168.21 79.61Z" fill="#B3A29A"/>
<path d="M188.37 83.86C187.76 83.71 187.01 83.25 186.85 82.5C186.7 82.5 186.7 82.35 186.7 82.2C186.24 81.74 186.09 81.14 186.09 80.38L186.24 80.23V80.08C185.78 79.32 185.63 78.41 185.94 77.5V77.35C185.94 76.74 185.94 75.99 186.4 75.38C186.4 75.23 186.4 75.08 186.55 75.08C186.4 74.78 186.25 74.32 186.55 74.02V73.41C186.4 72.2 187.01 71.14 187.46 70.07C187.76 69.01 188.37 67.8 188.82 66.73C189.12 65.82 189.43 65.06 190.03 64.3V64C190.64 62.94 191.09 61.73 191.7 60.66C192.61 58.69 193.82 56.87 195.04 55.05C195.19 54.75 195.34 54.59 195.65 54.44H195.8L197.17 53.08C197.47 52.62 197.93 52.17 198.53 52.17L199.14 52.32C199.9 52.62 199.9 53.23 199.75 53.84C199.6 54.14 199.6 54.45 199.45 54.75C199.3 55.51 198.84 56.11 198.54 56.72C198.54 56.87 198.39 57.02 198.39 57.02C198.24 57.48 197.93 57.78 197.78 58.08C197.63 58.54 197.48 58.99 197.02 59.29V59.59C196.87 60.2 196.56 60.8 196.11 61.26C195.5 61.72 195.5 62.47 195.05 63.08C194.9 63.38 194.9 63.53 194.59 63.69L194.29 64.45C193.83 65.21 193.53 66.12 193.08 66.88V67.34C193.08 67.79 192.78 68.25 192.47 68.7C192.32 69.15 192.01 69.61 191.86 70.06V70.21C191.71 70.97 191.56 71.57 191.1 72.18C191.1 72.33 191.1 72.48 190.95 72.63C190.8 73.84 190.04 75.06 189.89 76.27C189.74 76.72 189.74 77.03 189.59 77.33C189.44 78.39 188.98 79.45 189.13 80.67C189.13 81.13 189.13 81.58 189.43 81.88C189.89 82.18 190.34 82.18 190.8 82.18C191.41 82.18 192.01 82.03 192.62 81.88C193.68 81.42 194.59 80.67 195.5 80.06C196.11 79.6 196.56 79 197.17 78.7L197.93 77.94C198.23 77.48 198.69 77.18 199.14 77.03C199.14 76.73 199.29 76.42 199.6 76.42C199.6 76.12 199.9 75.97 200.21 75.81C200.36 75.35 200.67 75.05 201.12 74.9L201.42 74.6C201.72 73.99 202.18 73.54 202.79 73.08L204.15 71.41C204.3 70.95 204.61 70.5 205.06 70.2C205.52 69.74 205.67 69.14 206.27 68.68C206.27 68.53 207.33 67.16 207.48 67.01L209 64.74C209.15 64.28 209.61 63.83 209.91 63.38C209.91 63.23 210.06 63.08 210.21 62.92C210.36 62.62 210.36 62.31 210.67 62.16C210.82 61.4 211.28 60.95 211.73 60.34C211.88 59.88 211.88 59.58 212.34 59.28H212.49V58.98C212.64 58.68 212.79 58.52 212.95 58.37V58.22C212.95 57.92 213.1 57.61 213.41 57.46C213.41 57 213.71 56.7 213.86 56.25C214.01 55.95 214.16 55.64 214.62 55.95C214.92 56.25 214.92 56.56 214.77 56.86C214.47 57.16 214.31 57.31 214.16 57.62L213.7 58.53C213.55 59.29 212.94 59.74 212.64 60.5C212.64 60.65 212.49 60.65 212.34 60.5V60.65C212.04 61.71 211.73 62.62 210.82 63.23V63.38L210.21 64.44C209.91 65.2 209.3 65.8 208.84 66.41L207.48 68.53C207.33 68.83 207.18 69.14 206.87 69.29C206.41 70.2 205.81 70.96 205.05 71.56C204.14 72.92 203.08 74.14 202.02 75.35C201.72 75.81 201.11 76.26 200.65 76.71C200.65 76.86 200.5 77.01 200.35 77.01V77.16C199.59 78.07 198.68 78.83 197.92 79.74C196.86 80.65 195.95 81.71 194.74 82.32C194.59 82.32 194.59 82.47 194.44 82.47C193.08 83.38 191.71 84.14 190.04 84.14C189.59 84.16 188.98 84.16 188.37 83.86ZM205.21 41.7C205.06 41.55 204.76 41.4 204.76 41.09C204.76 41.09 204.61 40.94 204.61 40.79C204.31 40.18 204.31 39.73 204.61 39.12C204.76 38.36 205.22 37.6 205.98 37.15C206.28 37 206.59 36.85 206.89 36.85C207.04 36.85 207.19 36.85 207.5 37C207.8 37 208.41 37.3 208.41 37.61C209.32 39.43 208.11 41.86 206.14 42.01C205.66 42.16 205.36 42 205.21 41.7Z" fill="#B3A29A"/>
<path d="M204.3 83.55C204.45 82.94 204.15 82.34 204.6 81.88C204.6 81.73 204.6 81.58 204.75 81.58C204.75 80.67 204.9 79.76 205.05 78.85C205.05 78.7 205.05 78.55 205.2 78.55C205.35 77.49 205.5 76.28 205.96 75.37C206.26 74.31 206.26 73.4 206.87 72.49V72.03C207.02 71.73 207.17 71.57 207.33 71.42C207.33 71.12 207.18 70.66 207.33 70.51C207.48 69.9 207.94 69.3 208.24 68.84C208.24 68.54 208.24 68.38 208.39 68.23C208.24 67.77 208.54 67.47 208.69 67.17C208.84 66.71 208.84 66.26 209.3 65.96C209.3 65.66 209.6 65.51 209.6 65.35C209.75 64.14 210.06 63.23 210.81 62.32C211.11 61.71 211.42 61.11 211.72 60.65C211.72 60.35 211.72 60.19 212.02 60.04C212.63 58.37 213.54 57.01 214.45 55.64C214.91 55.03 215.06 54.28 215.66 53.82C216.12 52.76 216.87 52 217.48 51.09C217.94 50.18 218.54 49.57 219.45 48.97C219.6 48.82 219.75 48.82 219.91 48.82C220.21 48.82 220.52 48.97 220.67 49.12C220.97 49.73 221.28 50.18 220.82 50.79C220.36 51.4 220.21 52 219.91 52.31V52.46L219 54.28C218.54 55.19 218.24 56.1 217.63 56.86C217.48 57.31 217.17 57.77 217.02 58.22C216.87 58.83 216.56 59.43 216.11 59.89C215.96 60.8 214.9 62.92 214.29 63.83L213.83 65.04V65.19H213.68V65.34C213.98 65.64 213.68 65.95 213.53 66.25C213.53 66.4 213.53 66.4 213.68 66.55C213.68 66.4 213.83 66.4 213.98 66.4C213.83 66.1 214.13 66.1 214.28 65.94C215.04 64.73 215.95 63.67 217.16 62.76C217.31 62.46 217.46 62.15 217.92 62.15C218.07 61.7 218.37 61.39 218.83 61.24C219.74 60.03 220.8 59.12 222.17 58.36C222.32 57.91 222.78 57.75 223.23 57.6C223.53 57.3 223.99 56.99 224.44 56.99C224.59 56.69 224.74 56.69 225.05 56.69C225.51 56.23 225.96 56.08 226.57 55.93C227.18 55.48 227.78 55.17 228.54 55.17C228.84 55.02 229.3 55.02 229.75 55.02C231.72 55.02 233.39 55.17 235.36 55.63C236.27 55.93 237.03 55.93 237.79 55.93C238.09 55.93 238.25 55.78 238.4 55.78C238.55 55.78 238.7 55.93 238.7 56.23C238.85 56.84 238.4 56.99 237.94 56.99C237.64 57.14 237.48 57.14 237.18 57.14C236.88 57.14 236.42 57.14 236.12 56.99C235.06 56.99 234.15 56.99 233.09 56.54C232.33 56.39 231.42 56.39 230.66 56.39C229.45 56.39 228.23 56.54 226.87 57C226.72 57.15 226.41 57.15 226.26 57.15C225.05 57.76 223.83 58.36 222.77 59.12C222.31 59.58 221.86 60.18 221.25 60.33C220.95 60.78 220.49 61.09 220.04 61.39C219.74 61.69 219.43 62 218.98 62.3C217.01 64.27 215.34 66.09 213.67 68.37C213.37 68.83 213.21 69.13 212.91 69.28V69.43C212.76 69.73 212.61 70.04 212.15 70.34C211.85 70.64 211.85 70.95 211.54 71.1C211.24 71.1 211.39 71.4 211.39 71.55C211.39 71.85 209.72 76.4 209.57 76.71C209.42 77.17 209.42 77.62 209.11 77.92C208.96 79.28 208.2 80.5 207.75 81.71L207.29 83.07C207.14 83.37 206.99 83.68 206.99 83.98V84.44C206.38 85.2 206.23 85.35 205.32 85.35C204.75 85.07 204.14 84.16 204.3 83.55Z" fill="#B3A29A"/>
<path d="M237.2 81.43C236.9 81.43 236.9 81.28 236.74 80.97C236.13 80.51 234.92 79.76 234.62 79C234.47 79 234.47 78.85 234.47 78.7C233.71 77.64 233.71 76.43 233.56 75.06V74.76C233.41 74.61 233.41 74.61 233.56 74.46V72.79C233.71 71.73 233.71 70.67 234.02 69.45C234.17 69 234.02 68.39 234.48 67.78V67.48C234.78 66.57 235.24 65.66 235.69 64.45L236.15 62.93C236.15 62.63 236.3 62.48 236.61 62.32C236.91 61.86 237.07 61.41 237.37 60.8C237.37 60.8 237.37 60.65 237.52 60.5C237.52 60.35 237.67 60.2 237.82 60.04C238.58 58.98 239.19 58.07 240.1 57.16V57.01C240.1 56.56 240.4 56.25 240.86 56.1L241.62 55.19C242.08 54.43 242.68 53.98 243.59 53.52H243.74C244.04 52.91 244.5 52.76 245.11 52.46C245.57 52.16 246.17 52.01 246.78 51.7C247.24 51.55 247.99 51.4 248.6 51.4C249.36 51.4 250.12 51.55 250.57 51.86C251.48 52.47 251.78 53.38 251.63 54.29C252.39 55.05 253.15 55.35 253.9 55.81C254.66 56.11 255.27 56.42 256.02 56.57C256.17 56.72 256.48 56.72 256.63 56.72C257.24 56.87 257.84 56.87 258.3 57.02C258.91 57.02 259.36 57.17 260.12 57.17C262.7 57.17 265.73 56.56 267.7 55.5L269.67 54.29C269.97 54.14 270.28 53.68 270.73 53.53C271.19 53.38 271.64 53.23 271.64 53.53C271.03 54.29 269.67 55.35 269.21 55.5C268.91 56.11 268.3 56.11 267.84 56.26C267.38 56.87 262.38 58.23 258.89 58.23C258.44 58.23 257.83 58.23 257.37 58.08C257.22 58.08 256.91 58.08 256.76 57.78H256.46C255.25 57.48 253.88 57.17 252.82 56.42C252.67 56.42 252.52 56.27 252.36 56.27C252.21 56.27 252.06 55.82 251.9 55.82C251.9 55.82 251.9 55.97 251.75 56.12C251.75 57.03 251.45 61.43 250.84 63.1C250.84 63.4 250.84 63.55 250.69 63.71C250.69 64.01 250.69 64.17 250.54 64.32C250.39 65.08 250.39 65.99 249.78 66.59V66.74C249.78 67.2 249.63 67.5 249.48 67.95C249.33 68.56 249.18 69.31 248.72 69.92C248.57 70.53 248.72 70.98 247.96 71.59C247.2 73.56 246.14 75.23 244.93 76.9L244.47 77.36C244.32 77.66 244.17 77.97 243.86 78.12C243.4 78.73 243.1 79.03 242.8 79.33C242.04 80.54 240.68 81.15 239.46 81.6C239.31 81.9 239.01 81.75 238.85 81.9H238.24C237.96 81.58 237.5 81.73 237.2 81.43ZM239.93 79.92C240.39 79.77 240.69 79.46 241.14 79.16C241.29 79.01 241.44 78.86 241.75 78.71L242.2 78.25C242.2 77.79 242.5 77.49 242.96 77.49H243.11C243.57 76.43 244.78 74.91 245.54 74.15C245.54 73.85 245.84 73.39 245.99 73.24V73.09C245.99 72.94 246.14 72.79 246.29 72.79V72.64L246.44 72.49C246.44 72.03 246.74 71.73 247.05 71.43C247.05 71.28 247.05 71.28 247.2 71.13V70.83C247.5 70.22 247.66 69.77 247.96 69.31C247.96 69.16 248.11 69.01 248.11 68.85C248.26 68.24 248.41 67.64 248.72 66.88C248.72 66.58 248.87 66.27 249.02 65.97C249.02 65.82 249.02 65.52 249.17 65.36V65.06C249.17 64.91 249.17 64.91 249.32 64.76C249.47 64.46 249.47 64.15 249.62 63.85C249.62 63.55 249.62 63.09 249.92 62.79C249.92 62.64 249.92 62.33 250.07 62.18C250.07 61.73 250.22 61.12 250.37 60.51C250.37 60.21 250.37 59.9 250.52 59.45C250.67 57.93 250.67 56.42 250.67 54.75H250.52C250.22 54.6 249.91 54.6 249.76 54.29C249.46 54.44 249.3 54.44 249 54.44C248.85 54.59 248.85 54.59 248.7 54.59C248.55 54.89 248.24 55.05 247.94 55.05C247.48 55.51 247.18 55.96 246.58 56.26C246.58 56.41 246.43 56.72 246.12 56.72C245.97 56.87 245.97 57.02 245.82 57.02C245.52 57.32 245.36 57.78 244.91 57.93L244.3 58.54C244.3 58.69 244.3 58.69 244.15 58.84C243.54 59.3 243.39 59.9 242.79 60.51C242.64 60.97 242.18 61.42 241.73 62.03C241.58 62.18 241.43 62.49 241.27 62.79C241.11 63.09 240.81 63.4 240.51 63.85C240.36 64.15 240.36 64.46 240.06 64.76C239.91 65.06 239.76 65.52 239.45 65.97L239.3 66.12C239.3 66.27 239.3 66.42 239.15 66.42C239.15 66.72 239 66.88 238.85 67.03C239 67.49 238.55 67.79 238.39 68.24C238.24 68.85 237.94 69.45 237.63 70.06C237.63 70.36 237.63 70.51 237.48 70.51C237.18 72.03 236.72 73.39 236.57 74.91C236.57 75.97 236.57 77.03 236.87 78.09C236.87 78.24 236.87 78.55 237.02 78.55C237.48 79.16 237.48 79.91 238.23 80.07C238.53 80.07 238.69 80.22 238.99 80.22C239.32 80.22 239.63 80.07 239.93 79.92Z" fill="#B3A29A"/>
<path d="M260.7 83.86C260.09 83.71 259.34 83.25 259.18 82.5C259.03 82.5 259.03 82.35 259.03 82.2C258.57 81.74 258.42 81.14 258.42 80.38L258.57 80.23V80.08C258.11 79.32 257.96 78.41 258.27 77.5V77.35C258.27 76.74 258.27 75.99 258.73 75.38C258.73 75.23 258.73 75.08 258.88 75.08C258.73 74.78 258.58 74.32 258.88 74.02V73.41C258.73 72.2 259.34 71.14 259.79 70.07C260.09 69.01 260.7 67.8 261.15 66.73C261.45 65.82 261.76 65.06 262.36 64.3V64C262.97 62.94 263.42 61.73 264.03 60.66C264.94 58.69 266.15 56.87 267.37 55.05C267.52 54.75 267.67 54.59 267.98 54.44H268.13L269.5 53.08C269.8 52.62 270.26 52.17 270.86 52.17L271.47 52.32C272.23 52.62 272.23 53.23 272.08 53.84C271.93 54.14 271.93 54.45 271.78 54.75C271.63 55.51 271.17 56.11 270.87 56.72C270.87 56.87 270.72 57.02 270.72 57.02C270.57 57.48 270.26 57.78 270.11 58.08C269.96 58.54 269.81 58.99 269.35 59.29V59.59C269.2 60.2 268.89 60.8 268.44 61.26C267.83 61.72 267.83 62.47 267.38 63.08C267.23 63.38 267.23 63.53 266.92 63.69L266.62 64.45C266.16 65.21 265.86 66.12 265.41 66.88V67.34C265.41 67.79 265.11 68.25 264.8 68.7C264.65 69.15 264.34 69.61 264.19 70.06V70.21C264.04 70.97 263.89 71.57 263.43 72.18C263.43 72.33 263.43 72.48 263.28 72.63C263.13 73.84 262.37 75.06 262.22 76.27C262.07 76.72 262.07 77.03 261.92 77.33C261.77 78.39 261.31 79.45 261.46 80.67C261.46 81.13 261.46 81.58 261.76 81.88C262.22 82.18 262.67 82.18 263.13 82.18C263.74 82.18 264.34 82.03 264.95 81.88C266.01 81.42 266.92 80.67 267.83 80.06C268.44 79.6 268.89 79 269.5 78.7L270.26 77.94C270.56 77.48 271.02 77.18 271.47 77.03C271.47 76.73 271.62 76.42 271.93 76.42C271.93 76.12 272.23 75.97 272.54 75.81C272.69 75.35 273 75.05 273.45 74.9L273.75 74.6C274.05 73.99 274.51 73.54 275.12 73.08L276.48 71.41C276.63 70.95 276.94 70.5 277.39 70.2C277.85 69.74 278 69.14 278.6 68.68C278.6 68.53 279.66 67.16 279.81 67.01L281.33 64.74C281.48 64.28 281.94 63.83 282.24 63.38C282.24 63.23 282.39 63.08 282.54 62.92C282.69 62.62 282.69 62.31 283 62.16C283.15 61.4 283.61 60.95 284.06 60.34C284.21 59.88 284.21 59.58 284.67 59.28H284.82V58.98C284.97 58.68 285.12 58.52 285.28 58.37V58.22C285.28 57.92 285.43 57.61 285.74 57.46C285.74 57 286.04 56.7 286.19 56.25C286.34 55.95 286.49 55.64 286.95 55.95C287.25 56.25 287.25 56.56 287.1 56.86C286.8 57.16 286.64 57.31 286.49 57.62L286.03 58.53C285.88 59.29 285.27 59.74 284.97 60.5C284.97 60.65 284.82 60.65 284.67 60.5V60.65C284.37 61.71 284.06 62.62 283.15 63.23V63.38L282.54 64.44C282.24 65.2 281.63 65.8 281.17 66.41L279.81 68.53C279.66 68.83 279.51 69.14 279.2 69.29C278.74 70.2 278.14 70.96 277.38 71.56C276.47 72.92 275.41 74.14 274.35 75.35C274.05 75.81 273.44 76.26 272.98 76.71C272.98 76.86 272.83 77.01 272.68 77.01V77.16C271.92 78.07 271.01 78.83 270.25 79.74C269.19 80.65 268.28 81.71 267.07 82.32C266.92 82.32 266.92 82.47 266.77 82.47C265.41 83.38 264.04 84.14 262.37 84.14C261.92 84.16 261.31 84.16 260.7 83.86ZM277.54 41.7C277.39 41.55 277.09 41.4 277.09 41.09C277.09 41.09 276.94 40.94 276.94 40.79C276.64 40.18 276.64 39.73 276.94 39.12C277.09 38.36 277.55 37.6 278.31 37.15C278.61 37 278.92 36.85 279.22 36.85C279.37 36.85 279.52 36.85 279.83 37C280.13 37 280.74 37.3 280.74 37.61C281.65 39.43 280.44 41.86 278.47 42.01C277.99 42.16 277.69 42 277.54 41.7Z" fill="#B3A29A"/>
<path d="M276.62 83.55C276.77 82.94 276.47 82.34 276.92 81.88C276.92 81.73 276.92 81.58 277.07 81.58C277.07 80.67 277.22 79.76 277.37 78.85C277.37 78.7 277.37 78.55 277.52 78.55C277.67 77.49 277.82 76.28 278.28 75.37C278.58 74.31 278.58 73.4 279.19 72.49V72.03C279.34 71.73 279.49 71.57 279.65 71.42C279.65 71.12 279.5 70.66 279.65 70.51C279.8 69.9 280.26 69.3 280.56 68.84C280.56 68.54 280.56 68.38 280.71 68.23C280.56 67.77 280.86 67.47 281.01 67.17C281.16 66.71 281.16 66.26 281.62 65.96C281.62 65.66 281.92 65.51 281.92 65.35C282.07 64.14 282.38 63.23 283.13 62.32C283.43 61.71 283.74 61.11 284.04 60.65C284.04 60.35 284.04 60.19 284.34 60.04C284.95 58.37 285.86 57.01 286.77 55.64C287.23 55.03 287.38 54.28 287.98 53.82C288.44 52.76 289.19 52 289.8 51.09C290.26 50.18 290.86 49.57 291.77 48.97C291.92 48.82 292.07 48.82 292.23 48.82C292.53 48.82 292.84 48.97 292.99 49.12C293.29 49.73 293.6 50.18 293.14 50.79C292.68 51.4 292.53 52 292.23 52.31V52.46L291.32 54.28C290.86 55.19 290.56 56.1 289.95 56.86C289.8 57.31 289.49 57.77 289.34 58.22C289.19 58.83 288.88 59.43 288.43 59.89C288.28 60.8 287.22 62.92 286.61 63.83L286.15 65.04V65.19H286V65.34C286.3 65.64 286 65.95 285.85 66.25C285.85 66.4 285.85 66.4 286 66.55C286 66.4 286.15 66.4 286.3 66.4C286.15 66.1 286.45 66.1 286.6 65.94C287.36 64.73 288.27 63.67 289.48 62.76C289.63 62.46 289.78 62.15 290.24 62.15C290.39 61.7 290.7 61.39 291.15 61.24C292.06 60.03 293.12 59.12 294.49 58.36C294.64 57.91 295.1 57.75 295.55 57.6C295.85 57.3 296.31 56.99 296.76 56.99C296.91 56.69 297.06 56.69 297.37 56.69C297.83 56.23 298.28 56.08 298.89 55.93C299.5 55.48 300.1 55.17 300.86 55.17C301.16 55.02 301.62 55.02 302.07 55.02C304.04 55.02 305.71 55.17 307.68 55.63C308.59 55.93 309.35 55.93 310.11 55.93C310.41 55.93 310.56 55.78 310.72 55.78C310.87 55.78 311.02 55.93 311.02 56.23C311.17 56.84 310.72 56.99 310.26 56.99C309.96 57.14 309.8 57.14 309.5 57.14C309.2 57.14 308.74 57.14 308.44 56.99C307.38 56.99 306.47 56.99 305.41 56.54C304.65 56.39 303.74 56.39 302.98 56.39C301.77 56.39 300.55 56.54 299.19 57C299.04 57.15 298.73 57.15 298.58 57.15C297.37 57.76 296.15 58.36 295.09 59.12C294.63 59.58 294.18 60.18 293.57 60.33C293.27 60.78 292.81 61.09 292.36 61.39C292.06 61.69 291.75 62 291.3 62.3C289.33 64.27 287.66 66.09 285.99 68.37C285.69 68.83 285.53 69.13 285.23 69.28V69.43C285.08 69.73 284.93 70.04 284.47 70.34C284.17 70.64 284.17 70.95 283.86 71.1C283.56 71.1 283.71 71.4 283.71 71.55C283.71 71.85 282.04 76.4 281.89 76.71C281.74 77.17 281.74 77.62 281.43 77.92C281.28 79.28 280.52 80.5 280.07 81.71L279.61 83.07C279.46 83.37 279.31 83.68 279.31 83.98V84.44C278.7 85.2 278.55 85.35 277.64 85.35C277.08 85.07 276.47 84.16 276.62 83.55Z" fill="#B3A29A"/>
</g>
<defs>
<clipPath id="clip0">
<rect width="311.08" height="100.84" fill="white"/>
</clipPath>
</defs>
</svg>
